<svg width="40" height="40" viewBox="0 0 40 40" fill="none" xmlns="http://www.w3.org/2000/svg">
<circle cx="20" cy="20" r="19.5" transform="rotate(-90 20 20)" stroke="#688C63"/>
<path fill-rule="evenodd" clip-rule="evenodd" d="M20.5 9.8667C20.5 9.59056 20.2762 9.3667 20 9.3667C19.7239 9.3667 19.5 9.59056 19.5 9.8667V19.5H9.8667C9.59056 19.5 9.3667 19.7239 9.3667 20C9.3667 20.2762 9.59056 20.5 9.8667 20.5H19.5V30.1334C19.5 30.4095 19.7239 30.6334 20 30.6334C20.2762 30.6334 20.5 30.4095 20.5 30.1334V20.5H30.1334C30.4095 20.5 30.6334 20.2762 30.6334 20C30.6334 19.7239 30.4095 19.5 30.1334 19.5H20.5V9.8667Z" fill="#688C63"/>
</svg>
