<svg width="25" height="25" viewBox="0 0 25 25" fill="none" xmlns="http://www.w3.org/2000/svg">
<circle cx="12.5" cy="12.5" r="12" transform="rotate(-90 12.5 12.5)" stroke="#688C63"/>
<path fill-rule="evenodd" clip-rule="evenodd" d="M13 6.16675C13 5.89061 12.7761 5.66675 12.5 5.66675C12.2238 5.66675 12 5.89061 12 6.16675V12.0001H6.16666C5.89051 12.0001 5.66666 12.2239 5.66666 12.5001C5.66666 12.7762 5.89051 13.0001 6.16666 13.0001H12V18.8334C12 19.1096 12.2238 19.3334 12.5 19.3334C12.7761 19.3334 13 19.1096 13 18.8334V13.0001H18.8333C19.1095 13.0001 19.3333 12.7762 19.3333 12.5001C19.3333 12.2239 19.1095 12.0001 18.8333 12.0001H13V6.16675Z" fill="#688C63"/>
</svg>
