<svg width="77" height="53" viewBox="0 0 77 53" fill="none" xmlns="http://www.w3.org/2000/svg">
<path d="M11.0375 4.53838H5.30693V7.6373H10.7177V11.72H5.30693V14.9173H11.0375V19H0.486388V0.455674H11.0375V4.53838ZM26.7119 0.455674V14.9173H32.4916V19H21.8914V0.455674H26.7119ZM47.1802 0.455674V19H42.3596V0.455674H47.1802ZM63.745 9.11297L57.9653 0.455674H63.9172L66.4258 5.25162L69.5248 0.455674H75.4767L69.3526 9.11297L76.2637 19H70.3856L66.6718 12.9497L62.3185 19H56.4896L63.745 9.11297ZM5.88817 33.4557V52H1.06763V33.4557H5.88817ZM23.1909 41.7441H24.1009C25.0518 41.7441 25.7815 41.5473 26.2898 41.1538C26.7981 40.7603 27.0522 40.1946 27.0522 39.4568C27.0522 38.7189 26.7981 38.1532 26.2898 37.7597C25.7815 37.3662 25.0518 37.1695 24.1009 37.1695H23.1909V41.7441ZM33.7911 52H27.79L23.1909 44.8676V52H18.3703V33.4557H25.8717C26.9046 33.4557 27.8064 33.6114 28.5771 33.923C29.3477 34.2181 29.979 34.628 30.4709 35.1527C30.9791 35.6774 31.3563 36.2841 31.6022 36.9727C31.8645 37.6613 31.9957 38.3992 31.9957 39.1862C31.9957 40.5963 31.6514 41.7441 30.9627 42.6295C30.2905 43.4985 29.2903 44.0887 27.9622 44.4003L33.7911 52ZM49.2361 33.4557V52H44.4156V33.4557H49.2361ZM71.9005 38.2024C71.3758 37.7761 70.8511 37.4646 70.3264 37.2678C69.8017 37.0547 69.2934 36.9481 68.8015 36.9481C68.1785 36.9481 67.6702 37.0957 67.2767 37.3908C66.8832 37.6859 66.6864 38.0713 66.6864 38.5468C66.6864 38.8747 66.7848 39.1452 66.9815 39.3584C67.1783 39.5715 67.4324 39.7601 67.744 39.9241C68.0719 40.0716 68.4326 40.2028 68.8261 40.3176C69.236 40.4323 69.6377 40.5553 70.0313 40.6865C71.6053 41.2112 72.7531 41.9162 73.4745 42.8016C74.2123 43.6706 74.5813 44.8102 74.5813 46.2203C74.5813 47.1713 74.4173 48.0321 74.0894 48.8027C73.7778 49.5733 73.3105 50.2374 72.6875 50.7949C72.0808 51.3359 71.3266 51.7541 70.4248 52.0492C69.5394 52.3607 68.531 52.5165 67.3996 52.5165C65.055 52.5165 62.8824 51.8196 60.8821 50.4259L62.948 46.54C63.6695 47.1795 64.3827 47.655 65.0877 47.9665C65.7928 48.278 66.4896 48.4338 67.1783 48.4338C67.9653 48.4338 68.5474 48.2534 68.9245 47.8927C69.318 47.532 69.5148 47.1221 69.5148 46.663C69.5148 46.3842 69.4656 46.1465 69.3672 45.9497C69.2688 45.7366 69.1049 45.548 68.8753 45.3841C68.6458 45.2037 68.3424 45.0397 67.9653 44.8922C67.6046 44.7446 67.1619 44.5806 66.6372 44.4003C66.0141 44.2035 65.3993 43.9904 64.7926 43.7608C64.2023 43.5149 63.6695 43.1951 63.194 42.8016C62.7349 42.4081 62.3577 41.9162 62.0626 41.3259C61.7839 40.7193 61.6445 39.9568 61.6445 39.0386C61.6445 38.1204 61.7921 37.2924 62.0872 36.5546C62.3987 35.8004 62.825 35.1609 63.3661 34.6362C63.9236 34.0951 64.5959 33.677 65.3829 33.3819C66.1863 33.0868 67.0799 32.9392 68.0637 32.9392C68.9819 32.9392 69.9411 33.0704 70.9413 33.3327C71.9414 33.5786 72.9006 33.9476 73.8188 34.4395L71.9005 38.2024Z" fill="white"/>
</svg>
