<svg width="53" height="23" viewBox="0 0 53 23" fill="none" xmlns="http://www.w3.org/2000/svg">
<path opacity="0.6" d="M9.6834 16.31V17H2.4384V6.5H9.4584V7.19H3.2034V11.33H8.7984V12.005H3.2034V16.31H9.6834ZM12.2326 5.87H12.9826V17H12.2326V5.87ZM16.1437 9.17H16.8937V17H16.1437V9.17ZM16.5187 7.265C16.3487 7.265 16.2037 7.21 16.0837 7.1C15.9637 6.98 15.9037 6.835 15.9037 6.665C15.9037 6.495 15.9637 6.35 16.0837 6.23C16.2037 6.11 16.3487 6.05 16.5187 6.05C16.6887 6.05 16.8337 6.11 16.9537 6.23C17.0737 6.34 17.1337 6.48 17.1337 6.65C17.1337 6.82 17.0737 6.965 16.9537 7.085C16.8337 7.205 16.6887 7.265 16.5187 7.265ZM25.0348 17L22.3498 13.505L19.6648 17H18.8098L21.9148 12.965L18.9748 9.17H19.8298L22.3498 12.425L24.8698 9.17H25.7098L22.7698 12.965L25.9198 17H25.0348ZM27.8332 9.17H28.5832V17H27.8332V9.17ZM28.2082 7.265C28.0382 7.265 27.8932 7.21 27.7732 7.1C27.6532 6.98 27.5932 6.835 27.5932 6.665C27.5932 6.495 27.6532 6.35 27.7732 6.23C27.8932 6.11 28.0382 6.05 28.2082 6.05C28.3782 6.05 28.5232 6.11 28.6432 6.23C28.7632 6.34 28.8232 6.48 28.8232 6.65C28.8232 6.82 28.7632 6.965 28.6432 7.085C28.5232 7.205 28.3782 7.265 28.2082 7.265ZM32.4643 10.88C32.7043 10.31 33.0793 9.875 33.5893 9.575C34.0993 9.265 34.7193 9.11 35.4493 9.11V9.845L35.2693 9.83C34.3993 9.83 33.7193 10.105 33.2293 10.655C32.7393 11.195 32.4943 11.95 32.4943 12.92V17H31.7443V9.17H32.4643V10.88ZM37.5158 9.17H38.2658V17H37.5158V9.17ZM37.8908 7.265C37.7208 7.265 37.5758 7.21 37.4558 7.1C37.3358 6.98 37.2758 6.835 37.2758 6.665C37.2758 6.495 37.3358 6.35 37.4558 6.23C37.5758 6.11 37.7208 6.05 37.8908 6.05C38.0608 6.05 38.2058 6.11 38.3258 6.23C38.4458 6.34 38.5058 6.48 38.5058 6.65C38.5058 6.82 38.4458 6.965 38.3258 7.085C38.2058 7.205 38.0608 7.265 37.8908 7.265ZM43.4069 17.06C42.7769 17.06 42.1769 16.965 41.6069 16.775C41.0369 16.585 40.5919 16.345 40.2719 16.055L40.6169 15.455C40.9369 15.725 41.3469 15.95 41.8469 16.13C42.3569 16.31 42.8869 16.4 43.4369 16.4C44.2269 16.4 44.8069 16.27 45.1769 16.01C45.5569 15.75 45.7469 15.39 45.7469 14.93C45.7469 14.6 45.6419 14.34 45.4319 14.15C45.2319 13.96 44.9819 13.82 44.6819 13.73C44.3819 13.64 43.9669 13.545 43.4369 13.445C42.8169 13.335 42.3169 13.215 41.9369 13.085C41.5569 12.955 41.2319 12.745 40.9619 12.455C40.6919 12.165 40.5569 11.765 40.5569 11.255C40.5569 10.635 40.8119 10.125 41.3219 9.725C41.8419 9.315 42.5769 9.11 43.5269 9.11C44.0269 9.11 44.5219 9.18 45.0119 9.32C45.5019 9.46 45.9019 9.645 46.2119 9.875L45.8669 10.475C45.5469 10.245 45.1819 10.07 44.7719 9.95C44.3619 9.83 43.9419 9.77 43.5119 9.77C42.7819 9.77 42.2319 9.905 41.8619 10.175C41.4919 10.445 41.3069 10.8 41.3069 11.24C41.3069 11.59 41.4119 11.865 41.6219 12.065C41.8319 12.255 42.0869 12.4 42.3869 12.5C42.6969 12.59 43.1269 12.69 43.6769 12.8C44.2869 12.91 44.7769 13.03 45.1469 13.16C45.5269 13.28 45.8469 13.48 46.1069 13.76C46.3669 14.04 46.4969 14.425 46.4969 14.915C46.4969 15.565 46.2269 16.085 45.6869 16.475C45.1469 16.865 44.3869 17.06 43.4069 17.06Z" fill="white"/>
<path opacity="0.6" d="M47.9459 3.384H46.9379V3.2H49.1579V3.384H48.1499V6H47.9459V3.384ZM52.3118 6L52.3078 3.604L51.1358 5.628H51.0358L49.8638 3.612V6H49.6638V3.2H49.8358L51.0878 5.364L52.3398 3.2H52.5078L52.5118 6H52.3118Z" fill="white"/>
</svg>
